PathFileType	3	(X/Y/Z)	D:\minhoCalibration\240510\subject1_KPNP\preferred\preferred02.trc
DataRate	CameraRate	NumFrames	NumMarkers	Units	OrigDataRate	OrigDataStartFrame	OrigNumFrames
200.0	200.0	36	10	mm	200.0	184	236	
Frame#	Time	Left_Ankle_Outer1			Left_Ankle_Inner1			Left_Knee_Outer1			Left_Knee_Inner1			Left_Wrist1			Right_Wrist1			Right_Knee_Inner1			Right_Knee_Outer1			Right_Ankle_Inner1			Right_Ankle_Outer1			
		X1	Y1	Z1	X2	Y2	Z2	X3	Y3	Z3	X4	Y4	Z4	X5	Y5	Z5	X6	Y6	Z6	X7	Y7	Z7	X8	Y8	Z8	X9	Y9	Z9	X10	Y10	Z10	
184	0.91	-505.14084	123.02474	-584.18866	-555.18713	127.51659	-555.40662	-435.57108	547.94788	-413.95694	-547.2923	515.31213	-418.42563	-459.80936	938.41156	-621.34625	-724.26239	962.82147	-851.3288	-732.32184	481.83945	-849.06885	-776.37225	529.8786	-945.81909	-625.36993	125.38496	-1084.9075	-667.51978	143.79256	-1167.6553
185	0.915	-502.07425	122.07661	-584.27582	-552.55829	126.65759	-556.36182	-435.12717	546.42493	-411.65039	-546.68298	514.04272	-417.65222	-456.96704	938.54089	-618.03094	-723.68842	961.98169	-845.37506	-736.41833	481.50146	-842.06708	-780.62402	530.14435	-939.21265	-626.85315	128.8119	-1083.0056	-668.94696	147.77673	-1165.3844
186	0.92	-498.90012	121.21549	-584.43652	-549.914	125.67595	-557.50146	-434.30289	544.88318	-409.44177	-546.07947	512.64252	-417.27505	-453.99585	939.01562	-614.57007	-723.01685	961.39038	-839.91663	-741.09857	481.46893	-834.39746	-785.36963	530.78754	-931.98798	-628.70459	132.84439	-1080.6	-670.34766	153.01872	-1163.1388
187	0.925	-495.78793	120.31279	-584.6192	-547.24298	124.7903	-558.6814	-433.88165	543.27026	-407.4693	-545.24866	511.38849	-417.12869	-450.87244	939.84015	-610.96863	-721.96973	961.42426	-834.05969	-746.14862	481.48157	-825.97791	-790.56232	531.68884	-923.98627	-630.57904	137.55858	-1077.8409	-672.19165	158.64299	-1160.0627
188	0.93	-492.80066	119.38027	-584.76697	-544.64899	123.87042	-559.69574	-432.64233	541.94507	-405.52316	-544.36121	510.10306	-417.17661	-447.51495	940.9798	-607.38513	-721.29211	961.83038	-826.8421	-751.91681	482.21875	-816.52441	-796.41473	532.93457	-915.13013	-632.84344	142.95708	-1074.374	-674.54572	164.94501	-1156.3301
189	0.935	-490.12201	118.41488	-584.8075	-542.22839	123.12251	-560.75378	-431.97147	540.43579	-404.08429	-543.14551	508.88611	-417.24216	-444.0481	942.39465	-603.67145	-720.28748	962.13434	-820.05475	-758.16779	483.22293	-806.39722	-802.66699	534.44464	-905.33881	-635.51709	148.90431	-1070.2955	-677.51111	171.59573	-1151.5618
190	0.94	-487.55753	117.51506	-585.09766	-540.02905	122.40907	-561.59741	-430.43576	539.22894	-402.5202	-541.79529	507.72464	-417.72986	-440.41891	944.09174	-599.95325	-719.18439	962.63635	-813.5603	-764.87317	484.66138	-795.33368	-809.59021	536.3924	-894.9751	-638.8642	155.52246	-1065.3	-680.95624	179.43639	-1145.9885
191	0.945	-485.39493	116.66619	-585.13477	-538.15631	121.91353	-562.40106	-429.41354	538.02563	-401.67422	-540.2652	506.8252	-418.10028	-436.65771	946.07672	-596.22675	-718.19202	963.73865	-807.0509	-772.12598	486.75308	-783.07727	-816.71777	538.52759	-883.13324	-643.73907	162.71542	-1059.0537	-685.45459	187.7097	-1139.4991
192	0.95	-483.51566	115.9998	-585.0816	-536.59357	121.67658	-563.45532	-427.45505	537.20459	-400.7717	-538.41101	506.10226	-418.5636	-432.75873	948.26117	-592.55328	-716.49402	964.24475	-799.48047	-779.47821	489.28162	-769.78729	-824.0567	541.0675	-870.08081	-648.18701	170.24832	-1052.0913	-690.62115	196.67807	-1131.9595
193	0.955	-481.86389	115.48103	-585.02966	-534.8183	121.07107	-563.64581	-425.85495	536.43756	-400.53693	-536.47748	505.74542	-418.80719	-428.75827	950.67871	-588.93121	-714.97864	965.27942	-792.54291	-786.66028	492.04041	-755.3017	-831.37549	543.99261	-856.18018	-654.71423	177.93275	-1043.5776	-696.70837	205.34193	-1122.8475
194	0.96	-480.19891	115.12579	-584.91895	-534.07611	120.80168	-564.01733	-423.55777	536.06812	-400.30063	-534.10797	505.72348	-419.24872	-424.62018	953.35107	-585.4798	-713.41846	966.61188	-785.69189	-793.6748	495.49011	-740.23792	-838.60406	547.27863	-841.0401	-660.10388	186.22804	-1034.8671	-702.81616	214.9834	-1113.468
195	0.965	-478.86978	114.75153	-584.73737	-532.03204	120.56007	-564.95367	-421.36993	535.78351	-400.50531	-531.78827	505.8735	-419.49011	-420.36209	956.23871	-582.19763	-712.08197	968.27942	-778.89569	-800.11084	499.6243	-724.25616	-845.44336	550.9024	-824.97351	-666.492	195.08617	-1025.3666	-709.09167	225.31764	-1103.2914
196	0.97	-477.53433	114.6808	-584.49426	-530.6402	120.71598	-565.11237	-419.32971	535.60797	-401.17456	-529.24591	506.30731	-419.72107	-416.02902	959.35828	-579.09723	-710.16687	969.52649	-771.72266	-806.42603	505.23584	-707.34509	-851.84351	554.88171	-807.84454	-671.61108	204.85213	-1015.5488	-715.5838	236.32384	-1092.4309
197	0.975	-476.08365	114.65788	-584.27356	-529.50659	121.31299	-565.73041	-416.61649	535.70721	-401.66193	-526.41974	507.04901	-419.78909	-411.61676	962.60657	-576.20477	-709.02155	971.47491	-764.75409	-811.06677	510.63837	-689.70959	-857.67175	559.09271	-789.44379	-676.8244	215.32407	-1005.1151	-722.38324	248.26208	-1081.0563
198	0.98	-474.55508	114.76385	-584.03894	-527.91974	121.76756	-565.81934	-414.54953	535.7309	-402.74762	-523.70728	507.78497	-420.32162	-407.00293	965.95386	-573.56128	-707.638	973.86743	-757.3493	-814.46454	516.54504	-671.45245	-863.01489	563.73523	-770.56842	-681.5799	226.6974	-994.37933	-729.04669	260.53983	-1068.7129
199	0.985	-472.97699	115.02175	-583.64886	-526.08746	121.83273	-565.52417	-411.79474	536.14722	-404.05325	-520.85303	508.75635	-420.99371	-402.4664	969.44482	-571.59229	-706.58295	976.53125	-749.52319	-816.49683	522.79163	-652.84015	-867.80902	568.6756	-750.83893	-685.80573	238.84747	-983.24963	-735.57416	273.3316	-1055.8558
200	0.99	-471.35507	115.24661	-583.47363	-524.65448	122.60431	-565.96307	-408.94827	536.99127	-405.72479	-517.89642	509.89395	-421.87381	-397.4296	972.92175	-569.75299	-705.67615	979.23492	-741.13397	-817.01208	528.88013	-634.07971	-871.88483	573.94513	-730.38159	-689.44592	251.95193	-971.88678	-741.84076	286.37863	-1042.3906
201	0.995	-469.66443	115.57722	-583.32672	-522.89716	123.2602	-566.1933	-406.09256	537.79486	-407.59091	-514.841	511.14243	-423.15244	-392.32156	976.47412	-568.88647	-705.7807	982.66119	-732.06006	-816.57703	535.47742	-614.42078	-875.22522	579.49432	-709.1488	-692.49805	266.04156	-960.37872	-747.87256	300.15393	-1028.6956
202	1	-468.11493	116.04852	-583.25574	-521.16919	123.93828	-566.28381	-403.02811	538.71588	-409.73328	-511.72556	512.38177	-424.89252	-386.94293	979.95288	-568.88727	-705.58075	987.1839	-723.11157	-814.95624	541.69073	-594.63135	-877.76251	585.23291	-687.38696	-694.88342	281.53247	-948.54681	-753.69873	314.66779	-1014.8043
203	1.005	-466.70386	116.48345	-583.19641	-519.66656	124.81245	-566.30615	-399.72989	539.83856	-412.27676	-508.03851	513.67719	-427.90887	-381.35529	983.24475	-570.17798	-706.20605	991.19366	-712.6712	-812.28052	547.74097	-574.38312	-879.4693	591.19611	-665.0517	-695.99017	298.56467	-936.17963	-758.82446	329.52856	-999.99237
204	1.01	-465.3233	117.06058	-583.19641	-518.07452	125.55807	-566.33496	-396.25308	541.04645	-415.14685	-504.68814	515.1994	-430.11374	-375.47586	986.24048	-572.3465	-706.19824	996.33167	-702.08203	-808.76843	553.73151	-553.58093	-880.13312	597.11304	-641.84698	-697.11469	316.04877	-923.02795	-762.59387	345.46942	-984.80194
205	1.015	-464.15985	117.70102	-583.2644	-516.28925	126.26945	-565.86505	-392.5517	542.36066	-418.38168	-501.16367	516.81323	-432.46906	-369.38458	988.9632	-575.60132	-706.2442	1001.0397	-691.07184	-804.35516	559.56488	-532.43817	-879.87781	603.39209	-618.2641	-697.46075	334.14987	-908.77936	-764.98669	362.47903	-968.71326
206	1.02	-462.98871	118.47601	-583.30878	-515.16675	127.59286	-565.97913	-388.66507	543.80304	-421.97079	-497.46713	518.60522	-434.93637	-363.83887	991.4303	-579.41101	-706.23016	1005.7134	-679.55042	-799.34869	565.76398	-511.05438	-878.92706	610.01776	-593.29858	-697.11206	352.67648	-893.40155	-766.30792	380.45514	-951.61029
207	1.025	-461.86069	119.39206	-583.31732	-513.79321	128.89255	-565.72137	-384.56216	545.42108	-425.94003	-493.57434	520.5531	-437.27286	-358.13202	993.84943	-584.37415	-705.82281	1011.0244	-667.50836	-793.39282	572.43066	-489.51993	-877.21448	617.23724	-568.72845	-696.71155	371.11877	-877.31628	-767.17322	399.33875	-933.72729
208	1.03	-460.59302	120.47143	-583.39069	-512.18683	129.82039	-564.91882	-380.3309	547.14569	-430.24786	-489.4762	522.61127	-439.6178	-352.9964	996.03839	-589.9104	-704.23474	1016.4951	-656.16138	-786.03546	579.62756	-467.17572	-874.21924	625.1225	-543.26788	-696.60834	389.80414	-860.24304	-767.99286	418.8663	-915.05078
209	1.035	-459.58179	121.61497	-583.31195	-510.83325	131.75893	-564.85101	-375.85547	549.05927	-434.69131	-485.84183	525.49615	-439.96323	-348.47137	998.39227	-595.90253	-702.7088	1021.7185	-644.35657	-777.52496	587.66547	-445.16779	-870.01385	633.76404	-517.02216	-696.6629	408.41016	-842.63452	-768.89569	438.77829	-895.3739
210	1.04	-458.36133	122.99963	-583.19098	-509.23187	133.21904	-563.79358	-371.15619	551.05151	-439.49554	-480.85703	527.14685	-443.57574	-344.51486	1000.8335	-602.19916	-700.86578	1027.7311	-632.19513	-767.75604	596.65356	-422.90692	-864.49774	643.21844	-490.31934	-697.56604	426.76709	-824.63	-770.25018	459.35492	-875.03687
211	1.045	-457.02551	124.64883	-583.04718	-507.76328	135.14551	-562.79803	-366.65564	553.33801	-443.99557	-476.79333	530.17084	-443.73059	-340.80576	1003.4162	-608.82245	-698.39606	1033.4241	-620.75116	-756.8736	606.54749	-401.1691	-857.67126	653.44464	-463.00388	-698.7561	445.75034	-806.21948	-772.13123	479.94843	-853.80457
212	1.05	-455.74445	126.33827	-582.79474	-506.15317	137.25597	-561.93079	-361.815	555.60596	-448.69891	-472.1445	532.89362	-444.98526	-337.58368	1006.1568	-615.62543	-695.5719	1039.1223	-609.40167	-744.48633	617.09125	-379.14432	-849.45544	664.36969	-435.8858	-700.18469	464.99619	-787.59033	-774.83496	501.01657	-831.96783
213	1.055	-454.58768	128.10542	-582.4422	-504.58371	139.39055	-560.61804	-356.77118	557.75842	-453.66428	-467.52466	535.09943	-447.15155	-335.25647	1008.8318	-622.72791	-692.11298	1045.4232	-598.51898	-730.9939	628.47803	-357.39847	-839.6626	675.59119	-408.59882	-702.34631	484.85498	-768.65228	-778.47003	522.11401	-809.43616
214	1.06	-452.65268	130.59413	-582.54541	-503.05743	141.74954	-559.25281	-351.80185	560.13458	-458.39432	-461.49725	537.89313	-449.25272	-333.06271	1011.5793	-630.07367	-688.21124	1052.0481	-587.99701	-716.04364	640.41492	-336.21167	-828.55182	687.74261	-381.46658	-704.96344	505.10919	-749.44495	-782.95874	543.32617	-786.17072
215	1.065	-452.04468	132.31871	-581.65979	-501.5195	144.22997	-557.73853	-346.60892	562.60596	-463.16168	-456.22763	540.25934	-450.63116	-331.34677	1014.2287	-637.69067	-684.50568	1058.2345	-577.85699	-701.18488	653.56927	-315.06671	-815.81232	700.55182	-354.57211	-708.07092	526.11047	-730.02435	-787.77997	564.62543	-762.22644
216	1.07	-451.10922	134.30983	-581.19293	-500.22943	146.77879	-556.16949	-341.36151	564.98669	-467.94821	-450.25684	543.07935	-451.90268	-330.08148	1016.6548	-645.53003	-680.16632	1065.1624	-568.39746	-684.89752	667.40106	-294.66299	-801.67566	714.10834	-328.35056	-710.56268	547.69702	-710.57446	-793.34918	586.0672	-737.49658
217	1.075	-450.3251	136.2188	-580.797	-498.93762	149.36426	-554.06366	-336.14047	567.20288	-472.8334	-444.35773	545.6463	-452.68622	-329.48007	1018.8707	-653.46973	-675.33307	1071.8898	-559.05402	-667.83606	681.9823	-274.84518	-785.90668	728.72125	-302.54047	-713.09528	569.64935	-691.0376	-798.7821	607.51086	-711.96063
218	1.08	-449.85019	138.04657	-580.42798	-497.8027	151.75819	-552.42358	-330.87851	569.05981	-477.84677	-438.69699	548.1153	-452.62335	-329.24625	1020.7866	-661.60944	-669.69507	1078.3793	-550.3631	-649.43994	697.08838	-255.95045	-768.97961	744.09833	-277.9054	-718.08295	590.23499	-669.65869	-804.41571	628.9176	-685.08923
219	1.085	-449.6355	139.86874	-580.13574	-496.87335	154.11972	-550.79999	-326.01987	570.84326	-482.85803	-432.47162	550.7915	-451.98688	-329.81808	1022.2607	-669.65808	-664.27899	1085.2903	-542.25787	-630.42444	712.82104	-237.81378	-750.6944	760.39343	-254.28284	-723.29718	610.64197	-646.48016	-809.45111	650.22284	-657.63336
